<?xml version="1.0" encoding="utf-8"?>
<!-- Generator: Adobe Illustrator 16.0.0, SVG Export Plug-In . SVG Version: 6.00 Build 0)  -->
<!DOCTYPE svg PUBLIC "-//W3C//DTD SVG 1.1//EN" "http://www.w3.org/Graphics/SVG/1.1/DTD/svg11.dtd">
<svg version="1.1" id="Layer_1" xmlns="http://www.w3.org/2000/svg" xmlns:xlink="http://www.w3.org/1999/xlink" x="0px" y="0px"
	 width="402px" height="306px" viewBox="0 0 402 306" enable-background="new 0 0 402 306" xml:space="preserve">
<rect x="-36.996" y="-27" width="474" height="360"/>
<g>
	<rect x="65.925" y="31.317" fill="#6D6E71" width="268.945" height="244.995"/>
	<g>
		<g>
			<path fill="#FFFFFF" d="M151,78.439c0,50.08,0,99.979,0,150.112c-18.238,0-36.364,0-54.745,0c0-49.958,0-99.926,0-150.112
				C114.402,78.439,132.532,78.439,151,78.439z"/>
			<path fill="#FFFFFF" d="M249.817,78.439c18.381,0,36.453,0,54.725,0c0,50.094,0,100.07,0,150.241c-18.258,0-36.383,0-54.725,0
				C249.817,178.613,249.817,128.643,249.817,78.439z"/>
			<path fill="#FFFFFF" d="M200.5,153.261c0,0-38.49-73.482-37.822-74.822c25.148,0,50.117,0,75.513,0
				C238.99,79.779,200.752,153.073,200.5,153.261z"/>
		</g>
	</g>
</g>
</svg>
