<?xml version="1.0" encoding="utf-8"?>
<!-- Generator: Adobe Illustrator 16.0.0, SVG Export Plug-In . SVG Version: 6.00 Build 0)  -->
<!DOCTYPE svg PUBLIC "-//W3C//DTD SVG 1.1//EN" "http://www.w3.org/Graphics/SVG/1.1/DTD/svg11.dtd">
<svg version="1.1" id="Layer_1" xmlns="http://www.w3.org/2000/svg" xmlns:xlink="http://www.w3.org/1999/xlink" x="0px" y="0px"
	 width="402px" height="306px" viewBox="0 0 402 306" enable-background="new 0 0 402 306" xml:space="preserve">
<rect x="-37.5" y="-26.451" width="474" height="360"/>
<g>
	<rect x="66.407" y="30.307" fill="#FFFFFF" width="268.945" height="244.995"/>
	<g>
		<g>
			<path d="M151.483,81.429c0,50.08,0,99.979,0,150.111c-18.239,0-36.366,0-54.747,0c0-49.957,0-99.926,0-150.111
				C114.884,81.429,133.014,81.429,151.483,81.429z"/>
			<path d="M250.299,81.429c18.381,0,36.453,0,54.725,0c0,50.094,0,100.07,0,150.241c-18.258,0-36.383,0-54.725,0
				C250.299,181.603,250.299,131.633,250.299,81.429z"/>
			<path d="M200.982,156.251c0,0-38.49-73.482-37.822-74.822c25.148,0,50.117,0,75.513,0
				C239.472,82.769,201.234,156.063,200.982,156.251z"/>
		</g>
	</g>
</g>
</svg>
