<?xml version="1.0" encoding="utf-8"?>
<!-- Generator: Adobe Illustrator 16.0.0, SVG Export Plug-In . SVG Version: 6.00 Build 0)  -->
<!DOCTYPE svg PUBLIC "-//W3C//DTD SVG 1.1//EN" "http://www.w3.org/Graphics/SVG/1.1/DTD/svg11.dtd">
<svg version="1.1" id="Layer_1" xmlns="http://www.w3.org/2000/svg" xmlns:xlink="http://www.w3.org/1999/xlink" x="0px" y="0px"
	 width="399px" height="172px" viewBox="0 0 399 172" enable-background="new 0 0 399 172" xml:space="preserve">
<rect x="-21.5" y="-9.001" width="441" height="190"/>
<g>
	<g>
		<path fill="#FFFFFF" d="M172.459,36.901c0,26.911,0,53.721,0,80.658c-9.8,0-19.541,0-29.417,0c0-26.843,0-53.691,0-80.658
			C152.793,36.901,162.536,36.901,172.459,36.901z"/>
		<path fill="#FFFFFF" d="M225.555,36.901c9.876,0,19.584,0,29.402,0c0,26.918,0,53.77,0,80.729c-9.81,0-19.549,0-29.402,0
			C225.555,90.728,225.555,63.878,225.555,36.901z"/>
		<path fill="#FFFFFF" d="M199.055,77.105c0,0-20.681-39.482-20.321-40.204c13.512,0,26.928,0,40.572,0
			C219.737,37.623,199.19,77.004,199.055,77.105z"/>
	</g>
	<g>
		<path fill="#FFFFFF" d="M143.042,124.479h2.309l1.775,4.872c0.226,0.648,0.423,1.338,0.634,2.015h0.07
			c0.226-0.677,0.409-1.366,0.634-2.015l1.732-4.872h2.309V134.9h-1.901v-4.351c0-0.987,0.155-2.438,0.254-3.423h-0.057
			l-0.845,2.449l-1.606,4.381h-1.197l-1.62-4.381l-0.831-2.449h-0.057c0.099,0.985,0.269,2.436,0.269,3.423v4.351h-1.874V124.479z"
			/>
		<path fill="#FFFFFF" d="M159.296,124.479h2.084V134.9h-2.084V124.479z"/>
		<path fill="#FFFFFF" d="M168.169,124.479h2.127l3.027,5.548l1.042,2.254h0.071c-0.112-1.084-0.267-2.466-0.267-3.647v-4.154h1.972
			V134.9h-2.113l-3.014-5.576l-1.056-2.239h-0.07c0.098,1.127,0.253,2.436,0.253,3.634v4.182h-1.972V124.479z"/>
		<path fill="#FFFFFF" d="M185.015,126.212h-2.929v-1.732h7.97v1.732h-2.958v8.688h-2.083V126.212z"/>
		<path fill="#FFFFFF" d="M194.621,124.479h2.183l1.38,5.07c0.324,1.153,0.536,2.195,0.873,3.365h0.071
			c0.324-1.17,0.563-2.212,0.887-3.365l1.352-5.07h2.112l-3.196,10.421h-2.479L194.621,124.479z"/>
		<path fill="#FFFFFF" d="M208.902,124.479h6.394v1.732h-4.309v2.408h3.662v1.746h-3.662v2.788h4.464v1.746h-6.549V124.479z"/>
		<path fill="#FFFFFF" d="M227.465,134.9l-2.142-3.943h-1.449v3.943h-2.085v-10.421h3.634c2.183,0,3.914,0.76,3.914,3.153
			c0,1.563-0.788,2.535-1.985,3l2.437,4.268H227.465z M223.875,129.309h1.352c1.337,0,2.07-0.563,2.07-1.676
			c0-1.125-0.733-1.506-2.07-1.506h-1.352V129.309z"/>
		<path fill="#FFFFFF" d="M234.706,133.576l1.197-1.436c0.747,0.689,1.732,1.154,2.646,1.154c1.085,0,1.662-0.465,1.662-1.197
			c0-0.774-0.633-1.014-1.562-1.408l-1.395-0.591c-1.057-0.437-2.113-1.282-2.113-2.803c0-1.704,1.493-3.014,3.606-3.014
			c1.21,0,2.422,0.479,3.267,1.338l-1.057,1.31c-0.661-0.551-1.352-0.859-2.21-0.859c-0.916,0-1.508,0.408-1.508,1.099
			c0,0.746,0.747,1.015,1.634,1.366l1.367,0.577c1.266,0.522,2.097,1.323,2.097,2.83c0,1.705-1.422,3.155-3.83,3.155
			C237.113,135.098,235.72,134.548,234.706,133.576z"/>
		<path fill="#FFFFFF" d="M248.41,124.479h6.393v1.732h-4.31v2.408h3.662v1.746h-3.662v2.788h4.464v1.746h-6.547V124.479z"/>
	</g>
</g>
</svg>
