<?xml version="1.0" encoding="utf-8"?>
<!-- Generator: Adobe Illustrator 16.0.0, SVG Export Plug-In . SVG Version: 6.00 Build 0)  -->
<!DOCTYPE svg PUBLIC "-//W3C//DTD SVG 1.1//EN" "http://www.w3.org/Graphics/SVG/1.1/DTD/svg11.dtd">
<svg version="1.1" id="Layer_1" xmlns="http://www.w3.org/2000/svg" xmlns:xlink="http://www.w3.org/1999/xlink" x="0px" y="0px"
	 width="402px" height="306px" viewBox="0 0 402 306" enable-background="new 0 0 402 306" xml:space="preserve">
<rect x="-37" y="-27" width="474" height="360"/>
<g>
	<rect x="67.043" y="30.767" fill="#FFFFFF" width="268.945" height="244.995"/>
	<g>
		<g>
			<path d="M152.119,91.439c0,50.08,0,99.979,0,150.111c-18.239,0-36.366,0-54.747,0c0-49.958,0-99.926,0-150.111
				C115.52,91.439,133.65,91.439,152.119,91.439z"/>
			<path d="M250.935,91.439c18.381,0,36.453,0,54.725,0c0,50.094,0,100.07,0,150.241c-18.258,0-36.383,0-54.725,0
				C250.935,191.613,250.935,141.643,250.935,91.439z"/>
			<path fill="#CA3211" d="M201.618,166.261c0,0-38.49-73.482-37.822-74.822c25.148,0,50.117,0,75.513,0
				C240.107,92.779,201.87,166.073,201.618,166.261z"/>
		</g>
	</g>
</g>
</svg>
