<?xml version="1.0" encoding="utf-8"?>
<!-- Generator: Adobe Illustrator 16.0.0, SVG Export Plug-In . SVG Version: 6.00 Build 0)  -->
<!DOCTYPE svg PUBLIC "-//W3C//DTD SVG 1.1//EN" "http://www.w3.org/Graphics/SVG/1.1/DTD/svg11.dtd">
<svg version="1.1" id="Layer_1" xmlns="http://www.w3.org/2000/svg" xmlns:xlink="http://www.w3.org/1999/xlink" x="0px" y="0px"
	 width="399px" height="172px" viewBox="0 0 399 172" enable-background="new 0 0 399 172" xml:space="preserve">
<rect x="-20.844" y="-9.001" fill="#FFFFFF" width="441" height="190"/>
<g>
	<g>
		<path d="M173.116,36.901c0,26.911,0,53.721,0,80.658c-9.801,0-19.541,0-29.417,0c0-26.843,0-53.691,0-80.658
			C153.45,36.901,163.192,36.901,173.116,36.901z"/>
		<path d="M226.212,36.901c9.876,0,19.584,0,29.402,0c0,26.918,0,53.77,0,80.729c-9.811,0-19.55,0-29.402,0
			C226.212,90.728,226.212,63.878,226.212,36.901z"/>
		<path d="M199.711,77.105c0,0-20.681-39.482-20.32-40.204c13.512,0,26.928,0,40.572,0
			C220.394,37.623,199.847,77.004,199.711,77.105z"/>
	</g>
	<g>
		<g>
			<path d="M143.699,124.479h2.309l1.775,4.872c0.226,0.648,0.423,1.338,0.634,2.015h0.07c0.226-0.677,0.409-1.366,0.634-2.015
				l1.732-4.872h2.309V134.9h-1.9v-4.351c0-0.987,0.154-2.438,0.254-3.423h-0.057l-0.845,2.449l-1.606,4.381h-1.196l-1.62-4.381
				l-0.831-2.449h-0.057c0.1,0.985,0.269,2.436,0.269,3.423v4.351h-1.873V124.479z"/>
			<path d="M159.953,124.479h2.084V134.9h-2.084V124.479z"/>
			<path d="M168.826,124.479h2.127l3.027,5.548l1.041,2.254h0.071c-0.112-1.084-0.268-2.466-0.268-3.647v-4.154h1.973V134.9h-2.113
				l-3.014-5.576l-1.057-2.239h-0.069c0.098,1.127,0.253,2.436,0.253,3.634v4.182h-1.972V124.479z"/>
			<path d="M185.672,126.212h-2.93v-1.732h7.971v1.732h-2.958v8.688h-2.083V126.212z"/>
			<path d="M195.277,124.479h2.183l1.38,5.07c0.324,1.153,0.536,2.195,0.873,3.365h0.071c0.323-1.17,0.563-2.212,0.887-3.365
				l1.352-5.07h2.112l-3.196,10.421h-2.479L195.277,124.479z"/>
			<path d="M209.559,124.479h6.394v1.732h-4.309v2.408h3.661v1.746h-3.661v2.788h4.464v1.746h-6.549V124.479z"/>
			<path d="M228.122,134.9l-2.142-3.943h-1.449v3.943h-2.085v-10.421h3.634c2.183,0,3.914,0.76,3.914,3.153
				c0,1.563-0.787,2.535-1.985,3l2.437,4.268H228.122z M224.531,129.309h1.352c1.337,0,2.07-0.563,2.07-1.676
				c0-1.125-0.733-1.506-2.07-1.506h-1.352V129.309z"/>
			<path d="M235.362,133.576l1.197-1.436c0.746,0.689,1.732,1.154,2.646,1.154c1.085,0,1.661-0.465,1.661-1.197
				c0-0.774-0.633-1.014-1.562-1.408l-1.395-0.591c-1.057-0.437-2.113-1.282-2.113-2.803c0-1.704,1.493-3.014,3.606-3.014
				c1.21,0,2.422,0.479,3.267,1.338l-1.057,1.31c-0.661-0.551-1.352-0.859-2.21-0.859c-0.916,0-1.508,0.408-1.508,1.099
				c0,0.746,0.746,1.015,1.634,1.366l1.367,0.577c1.266,0.522,2.097,1.323,2.097,2.83c0,1.705-1.422,3.155-3.829,3.155
				C237.77,135.098,236.377,134.548,235.362,133.576z"/>
			<path d="M249.066,124.479h6.394v1.732h-4.31v2.408h3.662v1.746h-3.662v2.788h4.464v1.746h-6.548V124.479z"/>
		</g>
	</g>
</g>
</svg>
