<?xml version="1.0" encoding="utf-8"?>
<!-- Generator: Adobe Illustrator 16.0.0, SVG Export Plug-In . SVG Version: 6.00 Build 0)  -->
<!DOCTYPE svg PUBLIC "-//W3C//DTD SVG 1.1//EN" "http://www.w3.org/Graphics/SVG/1.1/DTD/svg11.dtd">
<svg version="1.1" id="Layer_1" xmlns="http://www.w3.org/2000/svg" xmlns:xlink="http://www.w3.org/1999/xlink" x="0px" y="0px"
	 width="402px" height="306px" viewBox="0 0 402 306" enable-background="new 0 0 402 306" xml:space="preserve">
<rect x="-37" y="-26.87" width="474" height="360"/>
<g>
	<rect x="65.921" y="31.448" fill="#6D6E71" width="268.945" height="244.995"/>
	<g>
		<g>
			<path fill="#FFFFFF" d="M150.996,78.569c0,50.08,0,99.979,0,150.112c-18.238,0-36.364,0-54.745,0c0-49.958,0-99.926,0-150.112
				C114.398,78.569,132.528,78.569,150.996,78.569z"/>
			<path fill="#FFFFFF" d="M249.813,78.569c18.381,0,36.453,0,54.725,0c0,50.094,0,100.07,0,150.241c-18.258,0-36.383,0-54.725,0
				C249.813,178.744,249.813,128.773,249.813,78.569z"/>
			<path fill="#CA3211" d="M200.496,153.391c0,0-38.49-73.482-37.822-74.822c25.148,0,50.117,0,75.513,0
				C238.986,79.909,200.748,153.204,200.496,153.391z"/>
		</g>
	</g>
</g>
</svg>
