<?xml version="1.0" encoding="utf-8"?>
<!-- Generator: Adobe Illustrator 16.0.0, SVG Export Plug-In . SVG Version: 6.00 Build 0)  -->
<!DOCTYPE svg PUBLIC "-//W3C//DTD SVG 1.1//EN" "http://www.w3.org/Graphics/SVG/1.1/DTD/svg11.dtd">
<svg version="1.1" id="Layer_1" xmlns="http://www.w3.org/2000/svg" xmlns:xlink="http://www.w3.org/1999/xlink" x="0px" y="0px"
	 width="402px" height="306px" viewBox="0 0 402 306" enable-background="new 0 0 402 306" xml:space="preserve">
<rect x="-37" y="-27" fill="#F9FBFD" width="474" height="360"/>
<g>
	<g>
		<path d="M137.562,56.501c0,64.67,0,129.097,0,193.83c-23.552,0-46.959,0-70.693,0c0-64.506,0-129.026,0-193.83
			C90.302,56.501,113.713,56.501,137.562,56.501z"/>
		<path d="M265.156,56.501c23.734,0,47.063,0,70.657,0c0,64.687,0,129.214,0,194c-23.575,0-46.979,0-70.657,0
			C265.156,185.852,265.156,121.329,265.156,56.501z"/>
		<path d="M201.473,153.117c0,0-49.699-94.881-48.834-96.615c32.471,0,64.711,0,97.5,0
			C251.174,58.236,201.799,152.872,201.473,153.117z"/>
	</g>
</g>
</svg>
