<?xml version="1.0" encoding="utf-8"?>
<!-- Generator: Adobe Illustrator 16.0.0, SVG Export Plug-In . SVG Version: 6.00 Build 0)  -->
<!DOCTYPE svg PUBLIC "-//W3C//DTD SVG 1.1//EN" "http://www.w3.org/Graphics/SVG/1.1/DTD/svg11.dtd">
<svg version="1.1" id="Layer_1" xmlns="http://www.w3.org/2000/svg" xmlns:xlink="http://www.w3.org/1999/xlink" x="0px" y="0px"
	 width="399px" height="172px" viewBox="0 0 399 172" enable-background="new 0 0 399 172" xml:space="preserve">
<rect x="-21.002" y="-8.971" width="441" height="190"/>
<g>
	<rect x="144.04" y="35.08" fill="#171717" width="111.915" height="101.949"/>
	<g>
		<g>
			<g>
				<g>
					<path fill="#FFFFFF" d="M179.442,48.031c0,20.839,0,41.604,0,62.465c-7.59,0-15.133,0-22.781,0c0-20.789,0-41.582,0-62.465
						C164.213,48.031,171.757,48.031,179.442,48.031z"/>
				</g>
				<g>
					<path fill="#FFFFFF" d="M220.563,48.031c7.648,0,15.169,0,22.772,0c0,20.846,0,41.642,0,62.519c-7.598,0-15.141,0-22.772,0
						C220.563,89.716,220.563,68.922,220.563,48.031z"/>
				</g>
				<g>
					<path fill="#FFFFFF" d="M200.04,79.166c0,0-16.017-30.578-15.738-31.135c10.465,0,20.854,0,31.423,0
						C216.057,48.588,200.146,79.088,200.04,79.166z"/>
				</g>
			</g>
			<g>
				<g>
					<g>
						<path fill="#FFFFFF" d="M156.661,115.855h1.788l1.375,3.773c0.174,0.501,0.327,1.036,0.489,1.56h0.057
							c0.173-0.523,0.316-1.058,0.489-1.56l1.342-3.773h1.79v8.07h-1.475v-3.37c0-0.763,0.122-1.886,0.198-2.65h-0.044l-0.655,1.898
							l-1.243,3.392h-0.927l-1.254-3.392l-0.644-1.898h-0.044c0.075,0.764,0.208,1.887,0.208,2.65v3.37h-1.451V115.855z"/>
					</g>
				</g>
				<g>
					<g>
						<path fill="#FFFFFF" d="M169.248,115.855h1.615v8.07h-1.615V115.855z"/>
					</g>
				</g>
				<g>
					<g>
						<path fill="#FFFFFF" d="M176.121,115.855h1.646l2.345,4.297l0.807,1.745h0.055c-0.086-0.839-0.206-1.908-0.206-2.825v-3.217
							h1.527v8.07h-1.637l-2.334-4.318l-0.819-1.734h-0.053c0.076,0.872,0.196,1.887,0.196,2.814v3.238h-1.527V115.855z"/>
					</g>
				</g>
				<g>
					<g>
						<path fill="#FFFFFF" d="M189.167,117.197h-2.269v-1.342h6.172v1.342h-2.29v6.728h-1.613V117.197z"/>
					</g>
				</g>
				<g>
					<g>
						<path fill="#FFFFFF" d="M196.606,115.855h1.689l1.07,3.927c0.25,0.894,0.414,1.7,0.676,2.606h0.055
							c0.251-0.906,0.436-1.712,0.687-2.606l1.047-3.927h1.635l-2.475,8.07h-1.919L196.606,115.855z"/>
					</g>
				</g>
				<g>
					<g>
						<path fill="#FFFFFF" d="M207.667,115.855h4.951v1.342h-3.338v1.864h2.837v1.352h-2.837v2.161h3.458v1.351h-5.071V115.855z"/>
					</g>
				</g>
				<g>
					<g>
						<path fill="#FFFFFF" d="M222.042,123.925l-1.657-3.053h-1.123v3.053h-1.613v-8.07h2.813c1.69,0,3.032,0.589,3.032,2.443
							c0,1.21-0.61,1.962-1.537,2.323l1.887,3.303H222.042z M219.262,119.596h1.047c1.036,0,1.603-0.437,1.603-1.297
							c0-0.873-0.566-1.167-1.603-1.167h-1.047V119.596z"/>
					</g>
				</g>
				<g>
					<g>
						<path fill="#FFFFFF" d="M227.65,122.901l0.927-1.112c0.578,0.534,1.342,0.893,2.05,0.893c0.841,0,1.287-0.359,1.287-0.927
							c0-0.599-0.49-0.785-1.211-1.09l-1.079-0.459c-0.818-0.337-1.636-0.991-1.636-2.169c0-1.32,1.156-2.334,2.791-2.334
							c0.939,0,1.877,0.371,2.531,1.036l-0.819,1.014c-0.512-0.425-1.047-0.666-1.712-0.666c-0.708,0-1.167,0.317-1.167,0.851
							c0,0.577,0.579,0.785,1.266,1.059l1.058,0.446c0.981,0.403,1.626,1.025,1.626,2.192c0,1.32-1.102,2.443-2.968,2.443
							C229.515,124.079,228.435,123.653,227.65,122.901z"/>
					</g>
				</g>
				<g>
					<g>
						<path fill="#FFFFFF" d="M238.263,115.855h4.952v1.342h-3.337v1.864h2.835v1.352h-2.835v2.161h3.457v1.351h-5.072V115.855z"/>
					</g>
				</g>
			</g>
		</g>
	</g>
</g>
</svg>
